<?xml version="1.0" encoding="UTF-8"?>
<svg version="1.1" xmlns="http://www.w3.org/2000/svg" width="512" height="512">
<path d="M0 0 C11.46782946 10.92642978 18.31669726 24.62545897 19.375 40.5 C20.11363281 40.355625 20.85226562 40.21125 21.61328125 40.0625 C38.0435808 37.0561936 38.0435808 37.0561936 45.375 39.5 C47.3062796 39.18052855 47.3062796 39.18052855 49.375 38.5625 C61.60613718 35.67761142 73.92437789 38.00629677 84.9296875 43.93359375 C93.23358488 49.25286348 98.95724959 55.73764074 103.375 64.5 C103.973125 65.675625 104.57125 66.85125 105.1875 68.0625 C106.62007075 72.20941533 107.08836116 76.14111284 107.375 80.5 C108.2103125 80.2834375 108.2103125 80.2834375 109.0625 80.0625 C121.73366124 76.98032564 121.73366124 76.98032564 126.94140625 79.9765625 C130.25396086 83.41141046 130.97790086 86.68797476 132.0625 91.25 C132.26166016 92.0234375 132.46082031 92.796875 132.66601562 93.59375 C133.25399968 95.89170734 133.81643229 98.19473733 134.375 100.5 C134.75532208 102.02633826 135.13675579 103.55240015 135.51953125 105.078125 C135.80183594 106.20734375 136.08414062 107.3365625 136.375 108.5 C137.27742432 108.48428955 138.17984863 108.4685791 139.10961914 108.45239258 C142.48484134 108.40100646 145.85964271 108.3635259 149.23510742 108.33520508 C150.69090368 108.32019687 152.14665532 108.29978367 153.60229492 108.27368164 C155.70502789 108.23694324 157.80715885 108.2201944 159.91015625 108.20703125 C161.80326538 108.18346558 161.80326538 108.18346558 163.73461914 108.15942383 C170.42643628 108.78547741 174.96566618 111.33478039 179.375 116.5 C181.34776698 119.710362 181.62924362 122.15646421 181.64242554 125.90045166 C181.65522049 127.544739 181.65522049 127.544739 181.66827393 129.22224426 C181.66736755 130.42024155 181.66646118 131.61823883 181.66552734 132.85253906 C181.67224457 134.11799057 181.67896179 135.38344208 181.68588257 136.6872406 C181.70354173 140.15645787 181.70823801 143.62557646 181.70951414 147.09483433 C181.71093677 149.26451452 181.71520857 151.43416971 181.72050858 153.60384369 C181.73901118 161.17975962 181.74717923 168.7556052 181.74560547 176.33154297 C181.74440519 183.38207346 181.76548437 190.43229726 181.7970928 197.48275018 C181.82329367 203.54406678 181.83397112 209.60528349 181.83269465 215.66665626 C181.83218597 219.28313207 181.83781606 222.89933552 181.85905075 226.5157547 C181.88211457 230.55400844 181.87288909 234.59158114 181.86083984 238.62988281 C181.87207886 239.81978317 181.88331787 241.00968353 181.89489746 242.23564148 C181.83145562 250.610916 180.64580847 256.0770609 174.6875 262.3125 C167.85691826 266.82326152 160.06875122 268.0960205 152.08984375 269.32421875 C150.67730064 269.55090996 150.67730064 269.55090996 149.23622131 269.78218079 C146.26272647 270.2577268 143.28770434 270.72278258 140.3125 271.1875 C138.28179035 271.5103723 136.25119011 271.83393352 134.22070312 272.15820312 C129.27336382 272.94676742 124.32462783 273.72593576 119.375 274.5 C119.53355469 275.24636719 119.69210937 275.99273437 119.85546875 276.76171875 C121.03771452 282.99295396 120.99142203 288.01768442 117.79552746 293.55927467 C114.04878122 298.67808127 108.09783536 300.95987077 102.03204727 302.01521683 C100.88636087 302.18678362 100.88636087 302.18678362 99.7175293 302.36181641 C98.88635967 302.50114971 98.05519005 302.64048302 97.19883347 302.78403854 C94.45145156 303.24024028 91.70071271 303.67091906 88.94921875 304.1015625 C86.98925113 304.42174675 85.02954417 304.7435301 83.07008362 305.06680298 C78.90181704 305.751011 74.73195516 306.4239963 70.5604248 307.0880127 C64.03891297 308.12615347 57.52170911 309.18973516 51.00488281 310.25683594 C39.1276519 312.19796801 27.24634128 314.11317635 15.36360931 316.02030945 C10.7359324 316.76308064 6.10842865 317.50692764 1.48095703 318.25097656 C0.63499246 318.38696447 -0.21097212 318.52295238 -1.08257198 318.66306114 C-7.37115204 319.67440751 -13.6588015 320.69143238 -19.94591618 321.71184731 C-24.16472027 322.39565051 -28.38504917 323.06868019 -32.60706425 323.73235893 C-35.79653797 324.23594992 -38.98400926 324.75196863 -42.171875 325.265625 C-43.82019569 325.51936386 -43.82019569 325.51936386 -45.5018158 325.77822876 C-61.19796211 328.34161041 -73.13766816 333.09962048 -82.72875977 346.05224609 C-86.51755758 351.34108087 -90.12294578 356.74652439 -93.73124695 362.15919495 C-94.27278255 362.97152368 -94.81431814 363.78385241 -95.37226391 364.62079716 C-95.78566682 365.2409341 -96.19906973 365.86107103 -96.625 366.5 C-95.41940367 366.49631283 -94.21380733 366.49262566 -92.97167778 366.48882675 C-64.35400456 366.40219755 -35.73633316 366.33623905 -7.11855846 366.29573868 C-3.59629135 366.29073585 -0.07402451 366.28555856 3.44824219 366.28027344 C4.1494628 366.2792242 4.85068341 366.27817495 5.57315312 366.27709392 C16.92759647 366.25968813 28.28195881 366.22814952 39.6363541 366.19138882 C51.2868076 366.15398416 62.93721385 366.13206458 74.58772457 366.12364602 C81.13175649 366.11842602 87.67560468 366.10613602 94.21957779 366.07707977 C100.3771253 366.04996044 106.53441313 366.04154809 112.69201469 366.04756927 C114.95353925 366.04646749 117.21507236 366.03849315 119.47654533 366.0231781 C122.56200521 366.00330522 125.64648195 366.00805151 128.73196411 366.01898193 C129.62885991 366.00733057 130.52575571 365.9956792 131.44983017 365.98367476 C136.92299096 366.0361576 140.03067758 366.8594075 144.375 370.5 C148.89382611 375.50734785 149.73296982 379.35096314 149.65625 385.9296875 C149.086052 391.14066363 146.6246116 394.36939903 142.75 397.875 C139.42683728 400.14874291 137.57034439 400.64838909 133.5859375 400.81640625 C132.64492188 400.85830078 131.70390625 400.90019531 130.734375 400.94335938 C129.74953125 400.98267578 128.7646875 401.02199219 127.75 401.0625 C126.75742187 401.10568359 125.76484375 401.14886719 124.7421875 401.19335938 C122.28660162 401.29961069 119.83091297 401.40164964 117.375 401.5 C117.98444458 402.17639526 117.98444458 402.17639526 118.60620117 402.86645508 C121.5001625 406.14581393 124.0193616 409.09431459 125.6875 413.1875 C125.99300781 413.91324219 126.29851562 414.63898438 126.61328125 415.38671875 C130.12870064 425.13975408 129.74046381 437.65097351 125.6328125 447.14453125 C120.19270159 457.33206813 112.40183208 464.44452417 101.58203125 468.5546875 C90.04941337 471.9540706 79.05995414 470.67325704 68.4375 465.125 C64.8948075 462.98661804 62.11892515 460.62502586 59.375 457.5 C58.529375 456.571875 57.68375 455.64375 56.8125 454.6875 C50.13718618 446.41682816 47.94591151 436.96518129 48.5 426.4375 C49.58742802 416.77563956 53.45948933 408.41551067 60.375 401.5 C22.755 401.5 -14.865 401.5 -53.625 401.5 C-51.645 403.81 -49.665 406.12 -47.625 408.5 C-41.82456105 418.16739825 -40.57361326 428.44612467 -42.625 439.5 C-45.73735814 449.95811339 -51.78520305 458.9968501 -60.98046875 465.05078125 C-71.41870378 470.67647549 -82.87655898 471.94348642 -94.32421875 468.74609375 C-104.13451844 465.15549402 -112.87184542 458.4035298 -117.9140625 449.12890625 C-122.62645842 438.80570799 -123.68100619 426.31250585 -120 415.4375 C-117.77715707 410.21899777 -114.64434221 405.51934221 -110.625 401.5 C-111.66398438 401.49742187 -112.70296875 401.49484375 -113.7734375 401.4921875 C-122.58893962 401.31335904 -129.80168479 400.73463703 -136.625 394.5 C-142.39235203 387.39140331 -143.53776341 380.51632152 -142.625 371.5 C-140.2257191 363.16991237 -133.82576175 355.89534196 -128.81640625 348.94921875 C-125.7839635 344.74346028 -122.85329836 340.47455638 -119.9375 336.1875 C-107.03545937 317.34042404 -107.03545937 317.34042404 -99.625 310.5 C-100.98431641 310.26216797 -100.98431641 310.26216797 -102.37109375 310.01953125 C-114.12324083 307.76859091 -123.19826091 304.23827434 -130.625 294.5 C-138.00797956 282.25312618 -143.03667515 268.51207407 -148.66017151 255.39680481 C-152.43846056 246.59173426 -156.26422136 237.80731116 -160.08734131 229.02163696 C-161.38299262 226.04413235 -162.67813392 223.06640637 -163.97314453 220.08862305 C-166.52310484 214.22546225 -169.07393438 208.36267995 -171.625 202.5 C-172.00587769 201.62460571 -172.38675537 200.74921143 -172.7791748 199.84729004 C-181.11191017 180.69632929 -189.47162932 161.55757871 -197.875 142.4375 C-203.31799976 130.05303522 -208.74505079 117.66200117 -214.125 105.25 C-214.39703247 104.62294159 -214.66906494 103.99588318 -214.94934082 103.349823 C-219.50987459 92.83334994 -219.50987459 92.83334994 -220.58789062 89.71191406 C-220.93013672 88.98198242 -221.27238281 88.25205078 -221.625 87.5 C-224.70822881 86.47225706 -227.29633139 86.17796137 -230.5300293 85.89916992 C-232.35288704 85.7384626 -232.35288704 85.7384626 -234.21257019 85.57450867 C-234.86176107 85.51868811 -235.51095196 85.46286755 -236.17981529 85.40535545 C-238.92114416 85.16794773 -241.66127814 84.91793847 -244.40155506 84.66872883 C-249.49914694 84.20536354 -254.59709827 83.74733329 -259.69702148 83.31030273 C-263.24854984 83.00547072 -266.79833327 82.68467492 -270.3475132 82.35366249 C-272.34489897 82.17177693 -274.34380768 82.00687025 -276.34269714 81.84233093 C-284.54141979 81.06578494 -291.15709174 80.14574971 -297.0625 73.9375 C-300.66620965 68.31571295 -300.19777284 61.9596048 -299.625 55.5 C-297.49026742 50.99334232 -294.70677871 48.3258468 -290.625 45.5 C-278.2412189 41.37207297 -261.32411195 45.2317029 -248.640625 46.47143555 C-245.10532266 46.81440898 -241.56854187 47.13725693 -238.03125 47.45898438 C-235.76030089 47.67587446 -233.48946288 47.89393174 -231.21875 48.11328125 C-229.64981995 48.25410881 -229.64981995 48.25410881 -228.04919434 48.39778137 C-221.45936899 49.06338809 -214.82492305 49.82833749 -209.56640625 54.21875 C-209.11136719 54.8065625 -208.65632813 55.394375 -208.1875 56 C-207.71441406 56.5878125 -207.24132812 57.175625 -206.75390625 57.78125 C-203.68359323 62.45577501 -204.05463992 68.13411236 -204.625 73.5 C-205.68818284 76.14345915 -207.01626384 78.11127055 -208.625 80.5 C-210.04218772 83.51795118 -209.57941649 84.63071895 -208.45336914 87.85986328 C-207.86719972 89.18519004 -207.26866501 90.50509286 -206.66015625 91.8203125 C-206.34799667 92.5201828 -206.0358371 93.2200531 -205.71421814 93.94113159 C-204.7161151 96.17412764 -203.70260863 98.39968967 -202.6875 100.625 C-201.67872005 102.85857275 -200.67322341 105.09354837 -199.67149353 107.33029175 C-199.04743728 108.72135421 -198.41878599 110.11036594 -197.78517151 111.49710083 C-195.625 116.27890452 -195.625 116.27890452 -195.625 118.5 C-194.93976761 118.47494385 -194.25453522 118.4498877 -193.54853821 118.42407227 C-187.03341798 118.18626291 -180.51821907 117.95074886 -174.00292683 117.71769714 C-170.65481759 117.59785748 -167.30675594 117.47693297 -163.95874023 117.35449219 C-160.09366322 117.213289 -156.22848724 117.07512215 -152.36328125 116.9375 C-151.18357254 116.89375244 -150.00386383 116.85000488 -148.78840637 116.80493164 C-141.06396509 116.53366521 -133.35397829 116.44964412 -125.625 116.5 C-125.6915126 115.71676361 -125.75802521 114.93352722 -125.82655334 114.1265564 C-126.85211247 101.97995164 -127.82524401 89.81622334 -128.0625 77.625 C-128.09666016 76.77139893 -128.13082031 75.91779785 -128.16601562 75.03833008 C-128.19773353 70.69782245 -128.04478656 69.03752302 -125.28515625 65.50390625 C-118.91364576 60.70422213 -110.31005852 60.58630902 -102.625 59.5 C-102.64071045 58.93192627 -102.6564209 58.36385254 -102.67260742 57.77856445 C-103.13549592 38.45638774 -101.50008852 21.23747137 -88.1875 6.0625 C-86.6882716 4.52036439 -85.16851854 2.99780458 -83.625 1.5 C-82.98820313 0.85417969 -82.35140625 0.20835938 -81.6953125 -0.45703125 C-59.18918825 -21.88921181 -22.7009753 -19.23277074 0 0 Z M-79.625 12.5 C-87.35036009 22.70359442 -91.77563384 33.18307892 -91.75 46 C-91.75257813 47.2890625 -91.75515625 48.578125 -91.7578125 49.90625 C-91.64579663 52.93726773 -91.26163029 55.55392539 -90.625 58.5 C-67.72757257 55.20944786 -44.8625105 51.71088848 -22 48.1875 C-21.2518465 48.07220192 -20.50369301 47.95690384 -19.73286819 47.83811188 C-10.36328407 46.39398211 -0.99400479 44.9478837 8.375 43.5 C8.53830097 30.45609522 3.02200814 19.14913206 -5.875 9.75 C-15.74697754 0.43650372 -27.59551775 -4.56138851 -41.25 -4.9375 C-56.19063863 -4.37541287 -69.48207753 1.39838921 -79.625 12.5 Z M50.375 50.5 C51.71030244 58.45350019 53.4535388 66.24733412 55.4375 74.0625 C55.70626953 75.14080078 55.97503906 76.21910156 56.25195312 77.33007812 C57.44747594 82.54538825 57.44747594 82.54538825 59.375 87.5 C67.88218086 86.9238126 76.21741477 85.84207298 84.625 84.4375 C85.76324219 84.25123047 86.90148437 84.06496094 88.07421875 83.87304688 C90.84185961 83.41952589 93.60872969 82.96179385 96.375 82.5 C95.6334593 72.45184677 92.51301953 65.05558738 85 58.0625 C75.1258042 49.97459088 62.75784102 45.54686359 50.375 50.5 Z M152.55859375 119.71875 C150.97641083 119.80990457 149.39437536 119.90365533 147.8125 120 C146.99458984 120.04769531 146.17667969 120.09539062 145.33398438 120.14453125 C143.3475191 120.26069881 141.36123814 120.3800115 139.375 120.5 C139.6400904 122.08430496 139.91255259 123.66737589 140.1875 125.25 C140.33832031 126.13171875 140.48914063 127.0134375 140.64453125 127.921875 C142.76067335 138.28757641 145.82851768 147.40202166 150.3125 157 C151.47891581 159.53549976 152.6379673 162.07434258 153.796875 164.61328125 C154.23944893 165.57933037 154.23944893 165.57933037 154.69096375 166.56489563 C156.80496727 171.19602385 158.83900287 175.85693913 160.828125 180.54296875 C161.10261978 181.18940338 161.37711456 181.83583801 161.65992737 182.50186157 C162.97761296 185.6115848 164.28729503 188.72445251 165.59155273 191.83984375 C166.06020752 192.9484375 166.5288623 194.05703125 167.01171875 195.19921875 C167.42123779 196.17721436 167.83075684 197.15520996 168.25268555 198.1628418 C169.2735139 200.61939991 169.2735139 200.61939991 171.375 202.5 C171.49088734 192.41654045 171.579712 182.3332395 171.63406086 172.24924946 C171.66014676 167.56672443 171.69552611 162.88465525 171.75219727 158.20239258 C171.80655345 153.68307712 171.83642812 149.16419989 171.84938622 144.64458275 C171.85861968 142.92096241 171.87665089 141.19736586 171.90365028 139.47393227 C171.93999028 137.05802351 171.94494354 134.64392162 171.94262695 132.2277832 C171.96959152 131.16071136 171.96959152 131.16071136 171.99710083 130.07208252 C171.95669983 126.17396328 171.46784555 124.61403675 168.97207642 121.54862976 C166.29118007 119.43388104 165.46757003 118.90020211 162.16015625 119.15625 C160.99444092 119.22392578 160.99444092 119.22392578 159.80517578 119.29296875 C157.38917688 119.49879225 154.98077764 119.6125613 152.55859375 119.71875 Z M-146.625 128.5 C-144.62314969 134.88735083 -142.22136064 140.98927534 -139.5 147.1015625 C-139.11183105 147.9822641 -138.72366211 148.8629657 -138.32373047 149.77035522 C-137.09460353 152.5569261 -135.85996562 155.34101255 -134.625 158.125 C-133.39132903 160.91668735 -132.15878089 163.70886865 -130.92626953 166.50106812 C-130.16257313 168.23002492 -129.39797692 169.95858466 -128.63232422 171.68667603 C-126.59865564 176.27826722 -124.5928248 180.8797887 -122.625 185.5 C-122.295 185.5 -121.965 185.5 -121.625 185.5 C-121.35965933 172.95896815 -122.19518299 160.56302646 -123.125 148.0625 C-123.27002214 146.05928027 -123.4145567 144.05602518 -123.55859375 142.05273438 C-123.90845382 137.20139773 -124.26486971 132.35058461 -124.625 127.5 C-127.16673977 127.47283176 -129.70818415 127.45308031 -132.25 127.4375 C-132.96285156 127.42912109 -133.67570313 127.42074219 -134.41015625 127.41210938 C-138.59844438 127.39289704 -142.4978462 127.6732673 -146.625 128.5 Z M-190.625 129.5 C-183.14709151 147.77651532 -175.26464723 165.86766706 -167.35403442 183.9596405 C-162.73363216 194.53143837 -158.14098768 205.11527191 -153.5491333 215.69949341 C-152.06818409 219.1119027 -150.58575137 222.52366429 -149.10302734 225.93530273 C-144.64114677 236.20658956 -140.19556042 246.4838687 -135.8125 256.7890625 C-134.73205844 259.32056176 -133.65103667 261.85181248 -132.56985474 264.38299561 C-131.5970818 266.66874236 -130.63416108 268.95846111 -129.67163086 271.24853516 C-124.20135166 284.93775403 -124.20135166 284.93775403 -113.9375 295 C-113.19113281 295.4640625 -112.44476563 295.928125 -111.67578125 296.40625 C-107.6282084 298.56495552 -104.33666123 298.63463613 -99.8125 298.625 C-98.60980469 298.62757813 -97.40710938 298.63015625 -96.16796875 298.6328125 C-92.89339682 298.51006118 -89.83827402 298.12001918 -86.625 297.5 C-87.17223683 294.12537285 -87.6799 292.41765 -89.625 289.5 C-90.76775391 289.66048828 -90.76775391 289.66048828 -91.93359375 289.82421875 C-98.4934608 290.58585125 -104.79058512 291.12361642 -110.625 287.5 C-111.7421875 285.76171875 -111.7421875 285.76171875 -112.625 283.5 C-112.95983398 282.70779053 -113.29466797 281.91558105 -113.63964844 281.09936523 C-115.0437146 275.97048826 -115.08668862 270.9447884 -115.2734375 265.6484375 C-116.54484399 230.23797919 -116.54484399 230.23797919 -128.59960938 197.44091797 C-132.76772119 189.55782928 -136.05151286 181.2059041 -139.55517578 173.01373291 C-141.24146855 169.08333882 -142.95218183 165.16384511 -144.66369629 161.24438477 C-149.41109434 150.36849306 -154.04941297 139.44917972 -158.625 128.5 C-169.35055144 128.40471845 -179.92983945 128.62819652 -190.625 129.5 Z M-121.625 185.5 C-120.625 187.5 -120.625 187.5 -120.625 187.5 Z M161.375 209.5 C162.375 211.5 162.375 211.5 162.375 211.5 Z M162.375 212.5 C163.64682783 220.03395529 163.64682783 220.03395529 165.5 227.4375 C166.94726723 233.14420413 167.81578538 239.92601298 165.5703125 245.49609375 C162.33174151 249.9742557 157.47937193 251.23224749 152.375 252.5 C152.705 254.15 153.035 255.8 153.375 257.5 C160.48063146 256.65288735 165.41036037 255.85658486 170.375 250.5 C174.47806953 238.1907914 170.645227 226.91595973 165.125 215.83984375 C164.5475 214.73769531 163.97 213.63554687 163.375 212.5 C163.045 212.5 162.715 212.5 162.375 212.5 Z M126.875 255.375 C125.69550781 255.54902344 124.51601563 255.72304688 123.30078125 255.90234375 C121.62048828 256.16337891 121.62048828 256.16337891 119.90625 256.4296875 C118.87048828 256.58679199 117.83472656 256.74389648 116.76757812 256.90576172 C115.97802734 257.10186035 115.18847656 257.29795898 114.375 257.5 C114.045 258.16 113.715 258.82 113.375 259.5 C114.26663577 261.61683841 114.26663577 261.61683841 115.375 263.5 C118.75016753 263.02200865 122.12510281 262.5423961 125.5 262.0625 C126.45132812 261.92779297 127.40265625 261.79308594 128.3828125 261.65429688 C133.0568987 260.98888877 137.72267608 260.3067161 142.375 259.5 C141.715 257.52 141.055 255.54 140.375 253.5 C135.91923641 253.5 131.26936559 254.69783547 126.875 255.375 Z M86.625 261.875 C85.76261719 262.00132812 84.90023438 262.12765625 84.01171875 262.2578125 C82.77615234 262.45117188 82.77615234 262.45117188 81.515625 262.6484375 C80.76829102 262.76364746 80.02095703 262.87885742 79.25097656 262.99755859 C77.14852271 263.39307935 77.14852271 263.39307935 75.375 265.5 C76.035 266.82 76.695 268.14 77.375 269.5 C86.60820113 269.00137275 95.35955884 267.45827206 104.375 265.5 C103.715 263.85 103.055 262.2 102.375 260.5 C96.99953964 260.3067645 91.91472851 261.03766094 86.625 261.875 Z M46.9375 268 C45.55401367 268.21462891 45.55401367 268.21462891 44.14257812 268.43359375 C41.88593993 268.78436653 39.63017147 269.13993865 37.375 269.5 C37.94952746 273.43075644 37.94952746 273.43075644 40.375 276.5 C42.88139794 276.43530182 42.88139794 276.43530182 45.75 275.890625 C46.81734375 275.71273438 47.8846875 275.53484375 48.984375 275.3515625 C50.10328125 275.15304687 51.2221875 274.95453125 52.375 274.75 C53.49390625 274.56695312 54.6128125 274.38390625 55.765625 274.1953125 C61.62296709 273.50864388 61.62296709 273.50864388 66.375 270.5 C65.715 269.18 65.055 267.86 64.375 266.5 C58.42176574 266.30400875 52.80970086 267.0614625 46.9375 268 Z M8.375 274 C7.50488281 274.14308594 6.63476562 274.28617187 5.73828125 274.43359375 C3.61624305 274.78338027 1.49547972 275.1408865 -0.625 275.5 C0.03085189 279.10992379 0.03085189 279.10992379 1.375 282.5 C9.955 281.18 18.535 279.86 27.375 278.5 C27.045 276.52 26.715 274.54 26.375 272.5 C20.19760045 272.32840557 14.45870312 272.96268656 8.375 274 Z M-20.2890625 278.375 C-21.97128906 278.64570313 -21.97128906 278.64570313 -23.6875 278.921875 C-25.4509375 279.20804687 -25.4509375 279.20804687 -27.25 279.5 C-28.43335938 279.69078125 -29.61671875 279.8815625 -30.8359375 280.078125 C-33.76585262 280.55069195 -36.69552544 281.02471092 -39.625 281.5 C-38.635 283.81 -37.645 286.12 -36.625 288.5 C-33.24983247 288.02200865 -29.87489719 287.5423961 -26.5 287.0625 C-25.54867188 286.92779297 -24.59734375 286.79308594 -23.6171875 286.65429688 C-18.9431013 285.98888877 -14.27732392 285.3067161 -9.625 284.5 C-10.615 282.19 -11.605 279.88 -12.625 277.5 C-15.2442043 277.5 -17.70210072 277.95690517 -20.2890625 278.375 Z M-58.2890625 284.375 C-59.97128906 284.64570313 -59.97128906 284.64570313 -61.6875 284.921875 C-63.4509375 285.20804687 -63.4509375 285.20804687 -65.25 285.5 C-66.43335938 285.69078125 -67.61671875 285.8815625 -68.8359375 286.078125 C-71.76585262 286.55069195 -74.69552544 287.02471092 -77.625 287.5 C-76.635 289.81 -75.645 292.12 -74.625 294.5 C-65.56721076 293.43170365 -56.57644855 292.28270374 -47.625 290.5 C-48.615 288.19 -49.605 285.88 -50.625 283.5 C-53.2442043 283.5 -55.70210072 283.95690517 -58.2890625 284.375 Z " fill="#020101" transform="translate(299.625,28.5)"/>
<path d="M0 0 C2.10710423 2.81656583 1.63441752 5.31921782 1.2721405 8.70046997 C0.2721405 10.51296997 0.2721405 10.51296997 -1.7278595 11.70046997 C-7.53550207 13.30162179 -13.34915765 14.3840708 -19.29426575 15.32937622 C-20.68305435 15.55457191 -20.68305435 15.55457191 -22.09989929 15.78431702 C-25.16289086 16.28032134 -28.22662061 16.77160476 -31.2903595 17.26296997 C-33.47214179 17.61546157 -35.65386256 17.96833424 -37.83552551 18.32156372 C-41.26891256 18.87737222 -44.70234602 19.43287958 -48.13598633 19.98712158 C-56.23885983 21.29524117 -64.33950326 22.6164687 -72.438797 23.94656372 C-73.56993423 24.13221893 -74.70107147 24.31787415 -75.8664856 24.50915527 C-80.44585738 25.260904 -85.02519074 26.01288197 -89.60429382 26.76626587 C-102.35033279 28.86255794 -115.10026033 30.92529235 -127.86457825 32.90750122 C-130.1550471 33.26542767 -132.44549344 33.62349827 -134.73591614 33.98171997 C-139.02394871 34.65228584 -143.31359589 35.31073793 -147.60456848 35.96218872 C-166.97357587 38.9558741 -184.86975003 43.02502024 -197.71321106 59.20095825 C-199.61202831 61.89452481 -201.43399111 64.62345989 -203.2278595 67.38796997 C-204.51863532 69.34038214 -205.81029922 71.29220747 -207.1028595 73.24343872 C-207.71903137 74.17978149 -208.33520325 75.11612427 -208.970047 76.08084106 C-210.50568122 78.36936262 -212.08619906 80.60076155 -213.7278595 82.81375122 C-214.15776184 83.3987439 -214.58766418 83.98373657 -215.03059387 84.5864563 C-216.13840042 86.07987169 -217.26064423 87.56254839 -218.3841095 89.04421997 C-220.07956563 92.39570302 -219.46915687 94.10307034 -218.7278595 97.70046997 C-217.46980405 97.70101474 -216.2117486 97.70155951 -214.91557026 97.70212078 C-185.05980937 97.71616133 -155.20420351 97.75589704 -125.34852992 97.82732559 C-121.67476196 97.83609247 -118.00099352 97.84464225 -114.32722473 97.85305786 C-113.59583566 97.85473692 -112.8644466 97.85641599 -112.11089423 97.85814593 C-100.26435518 97.88482439 -88.41786452 97.89391161 -76.57129852 97.8965114 C-64.41792325 97.89956957 -52.26468802 97.92150043 -40.11137599 97.96099454 C-32.6105213 97.98477361 -25.10994603 97.99378657 -17.60905882 97.98398308 C-11.85981888 97.97804483 -6.11090428 97.99834932 -0.36175156 98.02853012 C1.99853029 98.03679105 4.35885967 98.03648104 6.71913719 98.02706718 C9.93656957 98.01550253 13.15241212 98.03447762 16.36972046 98.06123352 C17.30843858 98.05056026 18.24715671 98.039887 19.21432084 98.02889031 C23.74590131 98.09942445 25.66464214 98.23164969 29.35588551 101.080266 C31.2721405 103.70046997 31.2721405 103.70046997 31.8346405 106.26296997 C31.04595546 109.68060514 30.14044081 110.63137531 27.2721405 112.70046997 C23.8569757 113.31518002 20.46769738 113.24826057 17.00558472 113.22186279 C15.94946592 113.22951389 14.89334712 113.23716498 13.80522472 113.24504793 C10.25452666 113.26574054 6.70447348 113.25771789 3.1537323 113.24978638 C0.61280211 113.25847765 -1.92812282 113.26884296 -4.46903992 113.28076172 C-10.66190333 113.30480899 -16.85452771 113.30984031 -23.04742876 113.30516119 C-28.08161836 113.30159641 -33.11575529 113.30509073 -38.14993858 113.31361008 C-38.86619412 113.31480045 -39.58244967 113.31599083 -40.32040992 113.31721728 C-41.77546667 113.31964078 -43.23052342 113.32206904 -44.68558016 113.32450204 C-58.33594945 113.34626232 -71.98621998 113.34192413 -85.63659485 113.32973234 C-98.12183212 113.31939732 -110.60675713 113.34189408 -123.09193263 113.37992878 C-135.91211333 113.41868448 -148.73214632 113.43519756 -161.55238599 113.42768228 C-168.74978384 113.42385743 -175.94691605 113.42884041 -183.14426613 113.45711136 C-189.91351025 113.48343144 -196.68202844 113.4784211 -203.45130539 113.45228958 C-205.93654655 113.44754931 -208.42183142 113.45305874 -210.90702248 113.46953583 C-214.298862 113.49040321 -217.68858983 113.47432884 -221.08035278 113.44891357 C-222.06499002 113.46366214 -223.04962726 113.47841071 -224.06410199 113.49360621 C-229.95758809 113.40063684 -233.16928221 112.3716668 -237.47327965 108.27962625 C-240.05556405 105.02927064 -240.26161222 101.27463302 -240.20588684 97.27371216 C-239.22752163 92.00712926 -235.69726118 88.02288874 -232.5403595 83.82546997 C-231.06530034 81.79371663 -229.5913584 79.76115176 -228.1184845 77.72781372 C-227.37791809 76.71831665 -226.63735168 75.70881958 -225.87434387 74.66873169 C-223.29795748 71.1059808 -220.84787615 67.47028337 -218.40925598 63.81253052 C-213.35942257 56.24958442 -208.21838095 49.11792739 -201.7278595 42.70046997 C-201.07172668 42.01082153 -200.41559387 41.3211731 -199.73957825 40.61062622 C-189.93455533 30.99025534 -178.3672528 26.65399678 -165.09895325 24.28250122 C-163.97678406 24.07452911 -162.85461487 23.86655701 -161.69844055 23.65228271 C-148.40166001 21.21885739 -135.05903246 19.04920267 -121.7144928 16.89639282 C-118.38390005 16.35836534 -115.05394285 15.81643461 -111.72395325 15.27468872 C-107.85594811 14.64558641 -103.98788001 14.01690334 -100.11946106 13.39035034 C-93.31854074 12.28842075 -86.52132029 11.16771774 -79.7278595 10.02078247 C-74.8576433 9.1991383 -69.98473455 8.44128754 -65.09114075 7.77078247 C-58.83458331 6.89978744 -52.61830639 5.84194371 -46.39582825 4.75515747 C-44.87990585 4.49125214 -44.87990585 4.49125214 -43.33335876 4.22201538 C-39.12753422 3.48876593 -34.92202881 2.75397216 -30.71833801 2.00857544 C-27.6119941 1.45889417 -24.50410063 0.91881189 -21.39582825 0.38015747 C-20.45813095 0.21144135 -19.52043365 0.04272522 -18.55432129 -0.13110352 C-3.59083207 -2.70067914 -3.59083207 -2.70067914 0 0 Z " fill="#D6E2EC" transform="translate(407.7278594970703,306.2995300292969)"/>
<path d="M0 0 C0.20496094 1.12019531 0.40992188 2.24039063 0.62109375 3.39453125 C0.89311689 4.86720824 1.16525849 6.33986336 1.4375 7.8125 C1.57220703 8.55048828 1.70691406 9.28847656 1.84570312 10.04882812 C2.41419737 13.11315076 3.01309651 16.03928953 4 19 C3.67 19.66 3.34 20.32 3 21 C2.84824451 22.59262066 2.75099675 24.19064856 2.68359375 25.7890625 C2.64169922 26.73007813 2.59980469 27.67109375 2.55664062 28.640625 C2.51732422 29.62546875 2.47800781 30.6103125 2.4375 31.625 C2.37272461 33.11386719 2.37272461 33.11386719 2.30664062 34.6328125 C2.20038931 37.08839838 2.09835036 39.54408703 2 42 C-2.09625559 43.03800403 -6.17165684 44.03482892 -10.3125 44.875 C-14.31392481 46.09577367 -14.99896139 46.51009338 -17 50 C-17.57229868 52.80883637 -17.57229868 52.80883637 -17.6875 55.75 C-17.75324219 56.73484375 -17.81898438 57.7196875 -17.88671875 58.734375 C-17.92410156 59.48203125 -17.96148437 60.2296875 -18 61 C-28.85384654 61.34409019 -39.70800668 61.67698867 -50.5625 62 C-51.36052284 62.0237545 -52.15854568 62.047509 -52.98075104 62.07198334 C-77.65839859 62.80313534 -102.30973575 63.31735558 -127 63 C-129.38776806 31.473206 -129.38776806 31.473206 -129 19 C-127.14718166 18.6592518 -125.29265605 18.32778217 -123.4375 18 C-122.40496094 17.814375 -121.37242187 17.62875 -120.30859375 17.4375 C-116.83529403 16.9782207 -113.49942416 16.92939371 -110 17 C-109.79503906 18.21558594 -109.59007812 19.43117188 -109.37890625 20.68359375 C-109.10698039 22.26826514 -108.83483357 23.85289863 -108.5625 25.4375 C-108.42779297 26.23994141 -108.29308594 27.04238281 -108.15429688 27.86914062 C-107.79732776 31.75471303 -107.79732776 31.75471303 -106 35 C-103.54190002 35.2500773 -103.54190002 35.2500773 -101 35 C-98.81177634 33.24812689 -98.81177634 33.24812689 -98.86474609 31.12060547 C-98.91711426 30.37697754 -98.96948242 29.63334961 -99.0234375 28.8671875 C-99.10078125 27.65869141 -99.10078125 27.65869141 -99.1796875 26.42578125 C-99.24414062 25.58402344 -99.30859375 24.74226563 -99.375 23.875 C-99.43171875 23.02550781 -99.4884375 22.17601563 -99.546875 21.30078125 C-99.68850977 19.1998655 -99.84304326 17.09982666 -100 15 C-97.74557324 13.87278662 -96.048653 13.67898949 -93.546875 13.38671875 C-92.6290625 13.27521484 -91.71125 13.16371094 -90.765625 13.04882812 C-89.77046875 12.92958984 -88.7753125 12.81035156 -87.75 12.6875 C-79.77849234 11.69604373 -71.89017651 10.5064759 -64 9 C-55.5735722 7.39608034 -47.15180028 6.18905576 -38.63842773 5.15112305 C-30.81312233 4.17154091 -23.08723116 2.82034651 -15.35546875 1.26953125 C-10.12806745 0.25265075 -5.32692178 -0.17900432 0 0 Z " fill="#F2C64B" transform="translate(311,82)"/>
<path d="M0 0 C9.9 0 19.8 0 30 0 C37.91293916 17.56498583 45.70832716 35.16656097 53.34242249 52.85417175 C56.60227171 60.4025024 59.88916224 67.93902644 63.1763916 75.47546387 C64.24685473 77.93028716 65.31640411 80.38550676 66.38574219 82.84082031 C69.78388566 90.640951 73.18936452 98.43769872 76.6161499 106.22529602 C78.19921734 109.82406983 79.77865865 113.42442964 81.35778809 117.02493286 C82.11385916 118.74601065 82.87172767 120.46630005 83.63146973 122.1857605 C84.68588685 124.57241628 85.73419023 126.96167176 86.78125 129.3515625 C87.09394836 130.05496262 87.40664673 130.75836273 87.7288208 131.483078 C89.24715884 134.96524406 90.44343595 138.23409848 91 142 C87.64703509 142.50828443 84.29246657 143.00511457 80.9375 143.5 C79.99455078 143.64308594 79.05160156 143.78617188 78.08007812 143.93359375 C72.99267758 144.67809139 68.1412006 145.17113566 63 145 C58.91551469 137.1919455 55.39777187 129.16196597 51.93054199 121.06790161 C50.54164452 117.82601685 49.14596463 114.58706487 47.7507019 111.34791565 C47.00082855 109.60702744 46.25126151 107.86600726 45.50198364 106.12486267 C41.52423412 96.88460013 37.51353497 87.65874123 33.4994812 78.4342041 C32.24787481 75.55761563 30.99701283 72.68070449 29.74633789 69.80371094 C25.76038609 60.6359111 21.77008612 51.47003888 17.7701416 42.30833435 C15.91652726 38.06199674 14.06480041 33.81483731 12.21325684 29.56759644 C11.32789811 27.53814797 10.44160084 25.50910867 9.55432129 23.48049927 C8.32295769 20.66508831 7.09474823 17.84832071 5.8671875 15.03125 C5.5035611 14.20213608 5.13993469 13.37302216 4.76528931 12.51878357 C4.42879364 11.74494827 4.09229797 10.97111298 3.74560547 10.17382812 C3.45507294 9.50871216 3.16454041 8.84359619 2.86520386 8.1583252 C1.79275126 5.48300025 0.91145588 2.73436763 0 0 Z " fill="#F2C54B" transform="translate(192,155)"/>
<path d="M0 0 C7.33535948 16.81716154 14.66933662 33.63492469 21.984375 50.4609375 C22.39739365 51.41095642 22.81041229 52.36097534 23.23594666 53.33978271 C25.32867719 58.15394144 27.42070819 62.96840312 29.51196289 67.78320312 C33.66510066 77.34317037 37.82795638 86.89870395 42.01171875 96.4453125 C43.19324436 99.14431199 44.37458851 101.84339085 45.5559082 104.54248047 C46.66326274 107.06968572 47.77397171 109.59539879 48.88476562 112.12109375 C49.55225139 113.64575977 50.21957852 115.17049525 50.88671875 116.6953125 C51.18986496 117.38158722 51.49301117 118.06786194 51.80534363 118.77493286 C53.13016537 121.81181598 54.3550617 124.74076745 55 128 C54.03578125 128.13277344 53.0715625 128.26554688 52.078125 128.40234375 C50.81484375 128.57894531 49.5515625 128.75554687 48.25 128.9375 C46.99703125 129.11152344 45.7440625 129.28554688 44.453125 129.46484375 C41.24209939 129.88952357 41.24209939 129.88952357 39.14355469 130.52954102 C36.46915647 131.11650746 33.98540028 131.09506429 31.25 131.0625 C30.26515625 131.05347656 29.2803125 131.04445313 28.265625 131.03515625 C27.14414062 131.01775391 27.14414062 131.01775391 26 131 C25.28066995 129.34977223 24.56134001 127.69954441 23.8420105 126.04931641 C23.18692191 124.54646734 22.53183151 123.04361906 21.8767395 121.54077148 C19.99501441 117.22389515 18.11332413 112.90700364 16.23168945 108.59008789 C12.07595782 99.05595579 7.91963036 89.52208423 3.76202393 79.98876953 C0.98444234 73.61942207 -1.79099932 67.24914352 -4.565979 60.87866211 C-7.05636442 55.16260702 -9.55074905 49.44830763 -12.04652405 43.73460388 C-13.89379306 39.50418837 -15.73888836 35.27282687 -17.58358765 31.04129028 C-18.47966155 28.98707645 -19.37664123 26.93325748 -20.27456665 24.87985229 C-21.52788107 22.01338473 -22.77796371 19.14552789 -24.02734375 16.27734375 C-24.40049713 15.42599854 -24.77365051 14.57465332 -25.15811157 13.69750977 C-26.97648509 9.51413414 -28.6448714 5.36290674 -30 1 C-26.68767894 0.82964947 -23.37512086 0.66440908 -20.0625 0.5 C-19.13630859 0.45230469 -18.21011719 0.40460938 -17.25585938 0.35546875 C-15.87817383 0.28779297 -15.87817383 0.28779297 -14.47265625 0.21875 C-13.64000244 0.17685547 -12.80734863 0.13496094 -11.94946289 0.09179688 C-7.96579287 -0.03218789 -3.98524076 -0.01725346 0 0 Z " fill="#F9637C" transform="translate(343,151)"/>
<path d="M0 0 C5.73336943 12.04916159 11.07760048 24.25403536 16.375 36.5 C17.70057858 39.55806874 19.02685914 42.61583249 20.35313416 45.67359924 C21.25105915 47.74399643 22.14873342 49.81450237 23.04615784 51.88511658 C27.05298079 61.12888615 31.0803969 70.36359673 35.11141968 79.59683228 C37.78907062 85.73224557 40.46150674 91.86993164 43.13293457 98.00805664 C43.69514738 99.29965015 44.25755409 100.59115928 44.82019043 101.88256836 C46.40644023 105.52352402 47.98676622 109.16698198 49.5625 112.8125 C49.92690186 113.6485376 50.29130371 114.4845752 50.66674805 115.34594727 C53 120.76849348 53 120.76849348 53 123 C43.74389928 125.09008726 34.42540928 126.03487095 25 127 C15.94106492 106.95923137 7.09462687 86.83049184 -1.66931152 66.65919495 C-4.29992594 60.60568479 -6.93905951 54.55593653 -9.58203125 48.5078125 C-10.7124938 45.91959818 -11.8428811 43.331351 -12.9732666 40.74310303 C-13.68292661 39.11879044 -14.39295078 37.49463688 -15.10339355 35.8706665 C-20.16947845 24.28864513 -25.11947206 12.66142411 -30 1 C-19.99485436 -0.18152463 -10.05748185 -0.09380035 0 0 Z " fill="#F9637C" transform="translate(383,150)"/>
<path d="M0 0 C8.08953654 17.69362143 15.99256008 35.45301558 23.58422852 53.36645508 C23.87301376 54.04528748 24.16179901 54.72411987 24.45933533 55.42352295 C25.04291739 56.79902688 25.62237538 58.17628756 26.19776917 59.55523682 C27.7945796 63.34278071 29.49971419 67.02765326 31.38037109 70.68334961 C37.87212 83.55981795 39.54225397 94.87285682 40 109.1875 C40.09132328 111.18832472 40.18636359 113.18898331 40.28515625 115.18945312 C40.42318907 118.00357679 40.55647155 120.81676329 40.66015625 123.63237 C40.86378397 129.13287032 41.33324408 134.53542553 42 140 C38.37 140.33 34.74 140.66 31 141 C20.39462531 117.08527931 9.86110082 93.14116765 -0.54980469 69.14111328 C-4.71991613 59.53038233 -8.90297854 49.92571249 -13.12109375 40.3359375 C-13.53464615 39.39559662 -13.94819855 38.45525574 -14.37428284 37.48641968 C-16.33548149 33.02866677 -18.29913169 28.57201104 -20.26586914 24.11669922 C-23.64054742 16.46077699 -26.99926379 8.81277208 -30 1 C-28.00070652 0.82506182 -26.00048399 0.66075318 -24 0.5 C-22.329375 0.36078125 -22.329375 0.36078125 -20.625 0.21875 C-13.76562939 -0.21164188 -6.86931676 -0.03751447 0 0 Z " fill="#F2C54B" transform="translate(262,153)"/>
<path d="M0 0 C2.92293563 3.4755194 4.61558418 7.34202287 6.37890625 11.48046875 C6.70295944 12.22875946 7.02701263 12.97705017 7.36088562 13.74801636 C8.43284194 16.22582145 9.49754045 18.70668068 10.5625 21.1875 C11.70488769 23.83212192 12.84921078 26.47590137 13.99356079 29.11967468 C14.78826586 30.95608775 15.58234357 32.79277241 16.37582397 34.62971497 C20.24975947 43.59473824 24.17677845 52.53608813 28.1111145 61.47473145 C34.35481247 75.66162318 40.56330138 89.86294194 46.70288086 104.09521484 C48.96077996 109.32345515 51.23171012 114.54341241 53.57421875 119.734375 C53.95755371 120.58459229 54.34088867 121.43480957 54.73583984 122.31079102 C55.42491121 123.83190434 56.11879904 125.35085068 56.81884766 126.86694336 C58.13565429 129.7687682 59 131.77219476 59 135 C55.64703509 135.50828443 52.29246657 136.00511457 48.9375 136.5 C47.99455078 136.64308594 47.05160156 136.78617188 46.08007812 136.93359375 C40.99267758 137.67809139 36.1412006 138.17113566 31 138 C26.16595568 128.69740897 22.07024194 119.09173721 17.96362305 109.45458984 C14.39585004 101.08112782 14.39585004 101.08112782 10.4453125 92.8828125 C4.84014195 81.83896161 3.67019697 71.73079953 3.15771484 59.42382812 C2.9890263 55.76177228 2.74663166 52.10991962 2.48828125 48.453125 C1.35229793 32.31252802 0.53867327 16.17114667 0 0 Z " fill="#F1C44A" transform="translate(186,168)"/>
<path d="M0 0 C7.23315976 5.15940411 12.27768623 11.10137886 14 20 C14.91533034 29.80512952 13.41685097 37.92275391 7.3125 45.8125 C2.13468522 51.38556781 -4.58546082 54.61080889 -12.1015625 55.2734375 C-21.88701761 55.55550162 -28.30231722 53.96693213 -35.8125 47.625 C-42.50683023 39.59180373 -45.63398187 33.21050761 -45.4375 22.453125 C-44.36090167 13.95568818 -39.93168311 6.63341251 -33.19140625 1.40234375 C-22.51759635 -5.42813353 -11.16874882 -6.31599228 0 0 Z " fill="#28569B" transform="translate(404,433)"/>
<path d="M0 0 C9.57 0 19.14 0 29 0 C36.54342353 15.08684707 41.49931122 28.73749815 45.5546875 44.90234375 C46.06510512 46.91358356 46.57602903 48.92469494 47.08743286 50.9356842 C48.15064076 55.12561488 49.20708515 59.31717728 50.25878906 63.51000977 C51.60703173 68.88232476 52.97330585 74.24986626 54.3447094 79.61630917 C55.40059753 83.75705578 56.44647876 87.90027969 57.4893837 92.04431343 C57.98935193 94.02546759 58.49255062 96.00580943 58.99905014 97.98530388 C59.70348775 100.74416826 60.39425458 103.50610824 61.08154297 106.26928711 C61.29235001 107.0833754 61.50315704 107.89746368 61.72035217 108.73622131 C62.72121681 112.82367344 63.3116194 115.86494114 62 120 C58.38026598 121.31626692 55.90432869 122 52 122 C43.25144725 102.43003603 34.58807522 82.82699232 26.1027832 63.14135742 C25.44094171 61.6059468 24.77907632 60.07054647 24.1171875 58.53515625 C23.78754501 57.77041489 23.45790253 57.00567352 23.11827087 56.21775818 C18.27789288 44.99707731 13.38286455 33.80012451 8.49438477 22.6003418 C8.14886566 21.80858047 7.80334656 21.01681915 7.44735718 20.20106506 C6.80626726 18.7321563 6.16494967 17.26334688 5.52334595 15.79466248 C4.95317708 14.48850131 4.38470669 13.18159696 3.81820679 11.87384033 C3.2612206 10.59824203 2.69459483 9.32681929 2.11953735 8.05926514 C0.83320703 5.18444731 0 3.18884415 0 0 Z " fill="#F7637B" transform="translate(394,149)"/>
<path d="M0 0 C6.78697564 4.43952675 11.70066979 9.7477777 13.69921875 17.765625 C14.81370408 27.57769173 13.78100655 35.81344836 8.15625 44.015625 C3.50995609 49.79956982 -1.99228028 53.33541565 -9.30078125 54.765625 C-19.6996286 55.68239996 -26.93583044 54.57053884 -35.29296875 48.26171875 C-41.07447725 43.11295045 -44.61883586 36.39567531 -45.74609375 28.7421875 C-46.07916205 20.10461617 -43.92371506 12.76471322 -38.55078125 5.953125 C-27.95864785 -5.38794713 -13.45752743 -7.52917875 0 0 Z " fill="#27559A" transform="translate(233.30078125,433.234375)"/>
<path d="M0 0 C3.29891895 3.81411374 5.00635607 8.24963659 6.96484375 12.8359375 C7.35024323 13.72647324 7.7356427 14.61700897 8.13272095 15.53453064 C9.40586188 18.47927271 10.67159675 21.42714022 11.9375 24.375 C12.82812863 26.4379886 13.71933201 28.50072916 14.61108398 30.56323242 C16.47182546 34.86816873 18.33005646 39.17417574 20.18652344 43.48095703 C24.20071403 52.78850382 28.24326109 62.08370368 32.28677368 71.37854004 C33.55407713 74.29312879 34.81960486 77.20848285 36.0847168 80.12402344 C39.59002075 88.1978276 43.10280336 96.26707647 46.69921875 104.30078125 C47.22636475 105.4818042 47.75351074 106.66282715 48.29663086 107.87963867 C49.22694874 109.95703085 50.16339216 112.03169738 51.10766602 114.1027832 C51.69632446 115.41702271 51.69632446 115.41702271 52.296875 116.7578125 C52.63041992 117.4914502 52.96396484 118.22508789 53.30761719 118.98095703 C54 121 54 121 54 125 C46.08094122 126.70284562 38.34244636 128.06850572 30.22265625 128.0234375 C29.42738525 128.02005371 28.63211426 128.01666992 27.81274414 128.01318359 C27.21453857 128.00883301 26.61633301 128.00448242 26 128 C25.2589502 126.29855835 25.2589502 126.29855835 24.50292969 124.56274414 C22.65447026 120.31894531 20.8055702 116.07533857 18.95654297 111.83178711 C18.15922385 110.00176065 17.36202121 108.17168344 16.56494141 106.34155273 C15.41339909 103.69761735 14.26142573 101.05387013 13.109375 98.41015625 C12.75816589 97.60353043 12.40695679 96.7969046 12.04510498 95.96583557 C11.70505432 95.18570602 11.36500366 94.40557648 11.01464844 93.60180664 C10.68459808 92.84319336 10.35454773 92.08458008 10.01449585 91.30297852 C9.31460676 89.71417997 8.60276553 88.13061142 7.8812561 86.55151367 C7.52131561 85.76180176 7.16137512 84.97208984 6.79052734 84.15844727 C6.46514984 83.45381851 6.13977234 82.74918976 5.80453491 82.02320862 C4.48237021 78.69828762 4.14469451 75.41961381 3.875 71.875 C3.7678064 70.70191284 3.7678064 70.70191284 3.65844727 69.50512695 C2.62349787 57.59702844 1.95879676 45.65112009 1.23754883 33.72070312 C1.00084045 30.01316391 0.7261243 26.30990025 0.4453125 22.60546875 C0.06976023 17.43204465 -0.1297747 12.31032681 -0.0625 7.125 C-0.05798828 6.42503906 -0.05347656 5.72507813 -0.04882812 5.00390625 C-0.03740341 3.33589722 -0.01949534 1.66793423 0 0 Z " fill="#F7637B" transform="translate(305,160)"/>
<path d="M0 0 C5 14.4 5 14.4 5 21 C-3.921192 21.26545546 -12.8425013 21.5264609 -21.76397419 21.78230286 C-25.90985143 21.90132348 -30.05567917 22.02168614 -34.20141602 22.14550781 C-54.14126832 22.73998398 -74.04922702 23.16836505 -94 23 C-94.33 20.03 -94.66 17.06 -95 14 C-81.70790591 11.48941272 -68.42130479 9.25283073 -55.01953125 7.41943359 C-51.53184789 6.93497046 -48.04718148 6.43137911 -44.5625 5.92578125 C-43.28906738 5.74144531 -42.01563477 5.55710937 -40.70361328 5.3671875 C-38.18619195 5.00246481 -35.66893403 4.63661208 -33.15185547 4.26953125 C-31.43313232 4.02203125 -31.43313232 4.02203125 -29.6796875 3.76953125 C-28.65601074 3.62104736 -27.63233398 3.47256348 -26.57763672 3.31958008 C-24 3 -24 3 -21 3 C-20.01 7.29 -19.02 11.58 -18 16 C-16.02 16 -14.04 16 -12 16 C-10.63467451 14.86298403 -10.63467451 14.86298403 -10.90234375 11.83984375 C-10.91394531 10.55207031 -10.92554688 9.26429687 -10.9375 7.9375 C-10.94652344 6.64714844 -10.95554687 5.35679688 -10.96484375 4.02734375 C-10.97644531 3.02832031 -10.98804688 2.02929688 -11 1 C-7.2735915 -0.04702186 -3.86986958 -0.07442057 0 0 Z " fill="#F6627B" transform="translate(420,118)"/>
<path d="M0 0 C0.82580566 0.06582275 1.65161133 0.13164551 2.50244141 0.19946289 C4.28390223 0.34523687 6.06437776 0.50347885 7.84375 0.67285156 C10.64428264 0.93933483 13.44589918 1.17283132 16.25 1.3984375 C21.07026956 1.79204628 25.88559081 2.2288746 30.70117188 2.67578125 C33.65879003 2.94052463 36.61761696 3.17626978 39.578125 3.40625 C41.46876332 3.5623387 43.35938885 3.71858253 45.25 3.875 C46.55590088 3.96865845 46.55590088 3.96865845 47.88818359 4.06420898 C52.50690337 4.46382666 55.86379873 4.97165157 59.625 7.9375 C61.18930248 11.06610495 60.98127284 13.49352925 60.625 16.9375 C58.8125 19.375 58.8125 19.375 55.625 20.9375 C47.82340754 21.57508164 39.87039638 20.67480647 32.09765625 19.984375 C30.94631699 19.88288147 29.79497772 19.78138794 28.60874939 19.67681885 C26.19585261 19.46113932 23.78321938 19.24249241 21.37084961 19.02099609 C17.67491077 18.68636015 13.97737377 18.37639535 10.27929688 18.06640625 C7.92694482 17.85308445 5.57472549 17.63829281 3.22265625 17.421875 C2.11849869 17.33315125 1.01434113 17.24442749 -0.12327576 17.15301514 C-1.14856888 17.0532135 -2.173862 16.95341187 -3.23022461 16.85058594 C-4.57944252 16.73067291 -4.57944252 16.73067291 -5.95591736 16.6083374 C-9.07193643 15.7442321 -10.35850227 14.43119903 -12.375 11.9375 C-13.4375 8.5 -13.4375 8.5 -13.375 4.9375 C-9.51086116 -0.38235979 -6.15410572 -0.65018964 0 0 Z " fill="#F5627A" transform="translate(23.375,83.0625)"/>
<path d="M0 0 C4.86326944 2.40491346 7.88149107 6.44385748 9.83984375 11.37890625 C10.83954086 17.00577286 10.11721479 21.62143217 6.83984375 26.37890625 C2.24413946 31.00720419 -1.29410589 33.49648696 -7.97265625 33.69140625 C-12.82630435 33.63488633 -15.44185571 32.65455197 -19.16015625 29.37890625 C-23.58424512 24.46325194 -25.75170003 20.45171306 -25.609375 13.828125 C-24.60891584 8.37344765 -21.21708373 3.90013977 -16.8203125 0.6484375 C-11.65464412 -1.81682274 -5.45843339 -1.56942298 0 0 Z " fill="#010204" transform="translate(396.16015625,442.62109375)"/>
<path d="M0 0 C4.84636992 2.29564891 8.66022805 5.76221779 10.75 10.8125 C11.56246685 17.92158495 11.29227413 23.08007452 7 29 C1.57802262 33.31545138 -3.12166357 34.68403346 -10 34 C-15.88198809 32.20549516 -18.50495388 29.83138729 -22 25 C-24.25205983 20.49588033 -23.7088965 14.86019444 -23 10 C-17.584057 0.46038995 -10.37101579 -1.03454714 0 0 Z " fill="#010204" transform="translate(224,442)"/>
<path d="M0 0 C1.14715878 4.32129525 2.28622694 8.64461902 3.41796875 12.9699707 C3.80379187 14.43995033 4.19178841 15.90936134 4.58203125 17.37817383 C5.14380295 19.49413278 5.69762903 21.61203898 6.25 23.73046875 C6.75273437 25.63928833 6.75273437 25.63928833 7.265625 27.58666992 C7.90084178 30.53911865 8.16034603 33.00102824 8 36 C7.11957031 36.13277344 6.23914063 36.26554687 5.33203125 36.40234375 C4.17058594 36.57894531 3.00914062 36.75554687 1.8125 36.9375 C0.66394531 37.11152344 -0.48460937 37.28554687 -1.66796875 37.46484375 C-3.68175789 37.78827764 -5.69116151 38.14466171 -7.6875 38.5625 C-10.80654418 39.15258944 -13.8347032 39.06206464 -17 39 C-19.4605446 34.07891081 -18.51828393 27.24194818 -17.31640625 22.04296875 C-15.21281405 15.80202094 -7.84352859 0 0 0 Z " fill="#EFC34A" transform="translate(340,83)"/>
<path d="M0 0 C6.93 0 13.86 0 21 0 C23.15751315 18.95529412 24.06066714 37.95359161 25 57 C22.07229385 53.52791311 20.40750858 49.66413924 18.671875 45.515625 C18.35978088 44.78237 18.04768677 44.04911499 17.72613525 43.29364014 C16.7289311 40.94790941 15.73922426 38.59910558 14.75 36.25 C13.77732923 33.95356463 12.80309665 31.65779751 11.82849121 29.36218262 C11.18358052 27.84222746 10.53977731 26.32180192 9.89709473 24.80090332 C8.27761416 20.97496528 6.63709941 17.16023082 4.95507812 13.36132812 C4.62912659 12.6245282 4.30317505 11.88772827 3.96734619 11.12860107 C3.3464406 9.72970193 2.72235841 8.33220716 2.09466553 6.93634033 C0 2.21856317 0 2.21856317 0 0 Z " fill="#EFC34A" transform="translate(273,153)"/>
<path d="M0 0 C2.29013653 3.4352048 2.17842973 4.985331 2 9 C2.928125 8.95875 3.85625 8.9175 4.8125 8.875 C8 9 8 9 11 11 C11.3984375 12.875 11.3984375 12.875 11.375 15 C11.38273438 15.70125 11.39046875 16.4025 11.3984375 17.125 C11 19 11 19 8 21 C4.8125 21.125 4.8125 21.125 2 21 C2.12375 22.36125 2.12375 22.36125 2.25 23.75 C2 27 2 27 0.3125 29.375 C-2 31 -2 31 -4.5625 31.4375 C-7 31 -7 31 -8.8125 29.9375 C-10.60842137 27.00731249 -10.18977574 24.3527047 -10 21 C-11.093125 21.061875 -12.18625 21.12375 -13.3125 21.1875 C-17 21 -17 21 -18.9375 19.875 C-20.50422245 17.11019567 -20.38976435 15.11811483 -20 12 C-18.9375 10.125 -18.9375 10.125 -17 9 C-13.3125 8.8125 -13.3125 8.8125 -10 9 C-10.061875 7.906875 -10.12375 6.81375 -10.1875 5.6875 C-10 2 -10 2 -8.9375 0 C-5.77203476 -1.63378851 -3.34979714 -0.85267564 0 0 Z " fill="#6FD6F9" transform="translate(501,308)"/>
<path d="M0 0 C2.53149646 1.26574823 2.62100714 2.18269593 3.6875 4.75 C5.82820983 9.21582538 8.60631974 11.75498355 13 14 C14.32227599 14.37480006 15.65452011 14.71969169 17 15 C17 15.66 17 16.32 17 17 C16.48050781 17.21914063 15.96101563 17.43828125 15.42578125 17.6640625 C7.91399526 21.07977295 4.43799659 25.40021806 1 33 C-1.53354248 31.73322876 -1.69801435 30.74370327 -2.8125 28.1875 C-5.72756051 22.16375872 -10.03565489 19.774114 -16 17 C-16 16.34 -16 15.68 -16 15 C-14.948125 14.5875 -13.89625 14.175 -12.8125 13.75 C-5.8614975 10.70893641 -2.95565928 6.80296996 0 0 Z " fill="#F5C84A" transform="translate(160,45)"/>
<path d="M0 0 C2.26571607 2.82675053 3.83139594 5.55488069 5.26171875 8.87890625 C5.65810547 9.79994141 6.05449219 10.72097656 6.46289062 11.66992188 C6.86701172 12.62447266 7.27113281 13.57902344 7.6875 14.5625 C8.10322266 15.52091797 8.51894531 16.47933594 8.94726562 17.46679688 C9.33978516 18.38654297 9.73230469 19.30628906 10.13671875 20.25390625 C10.49467529 21.09252197 10.85263184 21.9311377 11.22143555 22.79516602 C12 25 12 25 12 28 C4.52164749 29.34855537 4.52164749 29.34855537 2.28125 27.8515625 C0.58654378 25.40250534 0.49315039 23.6541808 0.3125 20.6875 C0.24804688 19.63433594 0.18359375 18.58117187 0.1171875 17.49609375 C-0.07834739 11.66263629 -0.07769386 5.83567195 0 0 Z " fill="#EBC049" transform="translate(194,280)"/>
<path d="M0 0 C2.5 1.5625 2.5 1.5625 4 4 C3.93913078 7.46954545 3.6274029 9.91947278 1.875 12.9375 C-1.22289358 14.69297303 -3.52844534 14.48723574 -7 14 C-9.69500656 11.58140437 -10.80636871 9.99236035 -11.5 6.4375 C-10.19781462 0.08934627 -5.87567428 -0.83938204 0 0 Z " fill="#4F8BD3" transform="translate(392,452)"/>
<path d="M0 0 C2.6923481 2.18753283 2.93936827 3.58423955 3.4375 7 C3 10 3 10 1.375 12.375 C-1.69477548 14.4753727 -3.34556561 14.53293835 -7 14 C-9.375 13 -9.375 13 -11 11 C-11.65964122 7.44238446 -11.63041883 4.26083766 -10 1 C-6.73916234 -0.63041883 -3.55761554 -0.65964122 0 0 Z " fill="#508DD6" transform="translate(222,452)"/>
<path d="M0 0 C2 2 2 2 2.3125 5.4375 C2 9 2 9 0.875 10.9375 C-1.88980433 12.50422245 -3.88188517 12.38976435 -7 12 C-8.875 10.9375 -8.875 10.9375 -10 9 C-10.4375 5.5 -10.4375 5.5 -10 2 C-7.00303875 -1.6885677 -4.34072074 -1.22672543 0 0 Z " fill="#F4C74C" transform="translate(480,356)"/>
<path d="M0 0 C2 2 2 2 2.3125 5.4375 C2 9 2 9 0.875 10.9375 C-1.88980433 12.50422245 -3.88188517 12.38976435 -7 12 C-8.875 10.9375 -8.875 10.9375 -10 9 C-10.4375 5.5 -10.4375 5.5 -10 2 C-7.00303875 -1.6885677 -4.34072074 -1.22672543 0 0 Z " fill="#87D146" transform="translate(118,274)"/>
<path d="M0 0 C2 2 2 2 2.3125 5.4375 C2 9 2 9 0.875 10.9375 C-1.88980433 12.50422245 -3.88188517 12.38976435 -7 12 C-8.875 10.9375 -8.875 10.9375 -10 9 C-10.4375 5.5 -10.4375 5.5 -10 2 C-7.00303875 -1.6885677 -4.34072074 -1.22672543 0 0 Z " fill="#FC657D" transform="translate(132,100)"/>
<path d="M0 0 C2.80688169 3.3733307 4.53750866 7.05975931 6.25 11.0625 C6.53101563 11.68705078 6.81203125 12.31160156 7.1015625 12.95507812 C9.12066659 17.63800023 9.12066659 17.63800023 8 21 C6.00045254 21.04254356 3.99958364 21.04080783 2 21 C-0.86065201 18.13934799 0.02642862 10.15460055 -0.0625 6.26953125 C-0.0625 4.17958366 -0.03425683 2.08966681 0 0 Z " fill="#EC5E76" transform="translate(312,270)"/>
<path d="M0 0 C0.33 2.64 0.66 5.28 1 8 C-3.29 8 -7.58 8 -12 8 C-12 5.69 -12 3.38 -12 1 C-7.915021 0.45533613 -4.1274515 0 0 0 Z " fill="#EB5E75" transform="translate(315,134)"/>
<path d="M0 0 C-0.97566112 1.16959987 -1.955625 2.33561177 -2.9375 3.5 C-3.48277344 4.1496875 -4.02804687 4.799375 -4.58984375 5.46875 C-5.05519531 5.9740625 -5.52054687 6.479375 -6 7 C-6.33 7 -6.66 7 -7 7 C-7 5.02 -7 3.04 -7 1 C-4.53721199 -0.231394 -2.7204945 -0.07159196 0 0 Z " fill="#D0AA40" transform="translate(328,79)"/>
</svg>
